/* XPM */
static char * qp2_xpm[] = {
"32 32 115 2",
"  	c None",
". 	c #403D3D",
"+ 	c #434040",
"@ 	c #6B6767",
"# 	c #8D8888",
"$ 	c #989292",
"% 	c #898484",
"& 	c #5B5757",
"* 	c #5C5959",
"= 	c #8A8585",
"- 	c #696565",
"; 	c #423F3F",
"> 	c #6F6B6B",
", 	c #DBD3D3",
"' 	c #F7EFEF",
") 	c #F8F0F0",
"! 	c #F4ECEC",
"~ 	c #A59F9F",
"{ 	c #918C8C",
"] 	c #F1E9E9",
"^ 	c #A6A0A0",
"/ 	c #D8D1D1",
"( 	c #6D6969",
"_ 	c #757070",
": 	c #F1D4D4",
"< 	c #F69999",
"[ 	c #F1A5A5",
"} 	c #F5E6E6",
"| 	c #D9D2D2",
"1 	c #B8B2B2",
"2 	c #B0AAAA",
"3 	c #F5E5E5",
"4 	c #EEA6A6",
"5 	c #F0E8E8",
"6 	c #4C4949",
"7 	c #E3DBDB",
"8 	c #F6C6C6",
"9 	c #F61919",
"0 	c #FC0D0D",
"a 	c #FB0D0D",
"b 	c #F04040",
"c 	c #F7E6E6",
"d 	c #555252",
"e 	c #F13D3D",
"f 	c #F81818",
"g 	c #F7C1C1",
"h 	c #8B8686",
"i 	c #F76464",
"j 	c #F4A0A0",
"k 	c #F4A6A6",
"l 	c #F26F6F",
"m 	c #C0B9B9",
"n 	c #FB3636",
"o 	c #F77575",
"p 	c #F97272",
"q 	c #F73B3B",
"r 	c #DED6D6",
"s 	c #F77373",
"t 	c #FA3636",
"u 	c #E8E1E1",
"v 	c #E4DDDD",
"w 	c #FA7373",
"x 	c #F93636",
"y 	c #D0C9C9",
"z 	c #F77474",
"A 	c #F87373",
"B 	c #F73838",
"C 	c #A7A1A1",
"D 	c #F15B5B",
"E 	c #F38F8F",
"F 	c #F58989",
"G 	c #F45757",
"H 	c #656161",
"I 	c #F39898",
"J 	c #F61515",
"K 	c #F1D5D5",
"L 	c #F2D5D5",
"M 	c #F51414",
"N 	c #F09C9C",
"O 	c #AFA9A9",
"P 	c #F7EAEA",
"Q 	c #EF7979",
"R 	c #F73030",
"S 	c #F93131",
"T 	c #E9ABAB",
"U 	c #F3EBEB",
"V 	c #EFA7A7",
"W 	c #F43939",
"X 	c #F82F2F",
"Y 	c #ED7676",
"Z 	c #F7EDED",
"` 	c #474444",
" .	c #BBB5B5",
"..	c #A9A3A3",
"+.	c #AAA4A4",
"@.	c #E5DDDD",
"#.	c #B9B3B3",
"$.	c #7B7777",
"%.	c #E3DCDC",
"&.	c #EDE6E6",
"*.	c #DFD8D8",
"=.	c #AEA8A8",
"-.	c #575353",
";.	c #928D8D",
">.	c #575454",
",.	c #E0D8D8",
"'.	c #EEE6E6",
").	c #BEB8B8",
"!.	c #7A7575",
"~.	c #676363",
"{.	c #837E7E",
"].	c #B7B0B0",
"^.	c #908B8B",
"/.	c #ADA7A7",
"(.	c #666262",
". . . . . . . . . . . . . . . . . . . . . . . . . . . . . . . . ",
". . . . . . . . . . . . . . . . . . . . . . . . . . . . . . . . ",
". . . . . . . . . . . . . . . . . . . . . . . . . . . . . . . . ",
". . . . . . . . . . . . . . . . . . . . . . . . . . . . . . . . ",
". . . . . . . . . . . . . . . . . . . . . . . . . . . . . . . . ",
". . . . . . . . . . . . . . . . . . . . . . . . . . . . . . . . ",
". . . + @ # $ % & . . . . . . . . . . . . . . . . * = $ # - ; . ",
". . > , ' ) ) ) ! ~ { ] ] ] ] ] ] ] ] ] ] ] ] { ^ ! ) ) ) ' / ( ",
". _ ] ) ) ) : < [ } | ) ) ) ) 1 2 2 1 ) ) ) ) | 3 4 < : ) ) ) 5 ",
"6 7 ) ) ) 8 9 0 a b c ) ) ) ) d . . d ) ) ) ) c e 0 0 f g ) ) ) ",
"h ) ) ) ) i 0 0 0 0 j ) ) ) ) d . . d ) ) ) ) k 0 0 0 0 l ) ) ) ",
"m ) ) ) ) n 0 0 0 0 o ) ) ) ) d . . d ) ) ) ) p 0 a 0 0 q ) ) ) ",
"r ) ) ) ) n 0 0 0 0 p ) ) ) ) d . . d ) ) ) ) s 0 0 0 0 t ) ) ) ",
"u ) ) ) ) t 0 0 0 0 p ) ) ) ) d . . d ) ) ) ) p 0 0 0 0 t ) ) ) ",
"v ) ) ) ) t 0 0 0 0 w ) ) ) ) d . . d ) ) ) ) s 0 0 0 0 x ) ) ) ",
"y ) ) ) ) t 0 0 0 0 z ) ) ) ) d . . d ) ) ) ) A 0 0 0 0 B ) ) ) ",
"C ) ) ) ) D 0 0 0 a E ) ) ) ) d . . d ) ) ) ) F 0 0 0 0 G ) ) ) ",
"H ! ) ) ) I a 0 a J K ) ) ) ) d . . d ) ) ) ) L M a 0 0 N ) ) ) ",
". O ) ) ) P Q R S T U ) ) ) ) d . . d ) ) ) ) U V W X Y Z ) ) ) ",
". `  .' ) ) ) ) ) v ..) ) ) ) d . . d ) ) ) ) +.@.) ) ) ) ) ' #.",
". . ; $.m %.&.*.=.-.;.) ) ) ) d . . d ) ) ) ) ;.>.O ,.'.%.).!.; ",
". . . . . . . . . . ;.) ) ) ) d . . d ) ) ) ) ;.. . . . . . . . ",
". . . . . . . . . . ;.) ) ) ) d . . d ) ) ) ) ;.. . . . . . . . ",
". . . . . . . . . . ;.) ) ) ) d . . d ) ) ) ) ;.. . . . . . . . ",
". . . . . . . . ~.{.].) ) ) ) ^.{.{.^.) ) ) ) ].{.~.. . . . . . ",
". . . . . . . . /.) ) ) ) ) ) ) ) ) ) ) ) ) ) ) ) /.. . . . . . ",
". . . . . . . . -.(.(.(.(.(.(.(.(.(.(.(.(.(.(.(.(.-.. . . . . . ",
". . . . . . . . . . . . . . . . . . . . . . . . . . . . . . . . ",
". . . . . . . . . . . . . . . . . . . . . . . . . . . . . . . . ",
". . . . . . . . . . . . . . . . . . . . . . . . . . . . . . . . ",
". . . . . . . . . . . . . . . . . . . . . . . . . . . . . . . . ",
". . . . . . . . . . . . . . . . . . . . . . . . . . . . . . . . "};
